<?xml version="1.0" encoding="utf-8"?>
<!-- Generator: Adobe Illustrator 23.0.5, SVG Export Plug-In . SVG Version: 6.00 Build 0)  -->
<svg version="1.1" id="Layer_1" xmlns="http://www.w3.org/2000/svg" xmlns:xlink="http://www.w3.org/1999/xlink" x="0px" y="0px"
	 viewBox="0 0 288 80.1" style="enable-background:new 0 0 288 80.1;" xml:space="preserve">
<style type="text/css">
	.st0{fill:#F6921F;}
	.st1{fill:#545454;}
	.st2{enable-background:new    ;}
</style>
<g id="Group_7" transform="translate(0 4)">
	<path id="Path_107" class="st0" d="M17.9,16.3l27.9,0V3.1H5.3v17.1l12.4,6.3L17.9,16.3z"/>
	<path id="Path_108" class="st0" d="M45.2,32.8C35.2,16.8,21,20.2,21,20.2v10.7c4.5-0.6,9,0.7,12.5,3.5c5.4,4.4,3.9,11.2,3.9,11.2
		c-1.7,10.2-10.5,11.6-10.5,11.6c-12,1.4-15.5-10.5-15.5-10.5L0,50.5c1.3,5.2,4.2,9.9,8.2,13.4c8,7.1,20.3,4.8,20.3,4.8
		c14-3.4,18.1-16.3,18.1-16.3C49.1,45.9,48.5,38.8,45.2,32.8z"/>
	<path id="Path_109" class="st1" d="M32,38.3c0,0-4.3-5.3-10.4-1.9l8.9,12.5C30.5,48.9,36.4,43.4,32,38.3z"/>
</g>
<g class="st2">
	<path class="st1" d="M66.1,16.3v4.1h8.1v5.4h-8.1v4.6h9.2v5.7H59V10.7h16.2v5.7H66.1z"/>
	<path class="st1" d="M94.9,36.1L90,28.9l-4.2,7.2h-8l8.2-13l-8.5-12.4h8.3l4.8,7l4.1-7h8l-8.1,12.8l8.7,12.6H94.9z"/>
	<path class="st1" d="M106.7,16.6c1-2,2.5-3.5,4.4-4.6c1.9-1.1,4.1-1.6,6.6-1.6c3.2,0,5.8,0.8,8,2.5c2.2,1.7,3.6,4,4.2,6.9h-7.6
		c-0.5-1-1.1-1.7-1.9-2.2c-0.8-0.5-1.7-0.8-2.8-0.8c-1.6,0-2.9,0.6-3.9,1.7c-1,1.2-1.5,2.7-1.5,4.7c0,2,0.5,3.5,1.5,4.7
		s2.3,1.7,3.9,1.7c1.1,0,2-0.3,2.8-0.8c0.8-0.5,1.4-1.2,1.9-2.2h7.6c-0.6,2.9-2,5.2-4.2,6.9c-2.2,1.7-4.8,2.5-8,2.5
		c-2.5,0-4.7-0.5-6.6-1.6c-1.9-1.1-3.4-2.6-4.4-4.6c-1-2-1.6-4.2-1.6-6.7C105.1,20.8,105.7,18.6,106.7,16.6z"/>
	<path class="st1" d="M140.7,16.3v4.1h8.1v5.4h-8.1v4.6h9.2v5.7h-16.2V10.7h16.2v5.7H140.7z"/>
	<path class="st1" d="M172.7,23.3c-0.7,1.3-1.8,2.3-3.2,3s-3.2,1.1-5.2,1.1h-3.5v8.6h-7.1V10.7h10.5c2,0,3.8,0.4,5.2,1.1
		s2.5,1.7,3.2,3c0.7,1.3,1.1,2.7,1.1,4.4C173.7,20.7,173.4,22.1,172.7,23.3z M166.5,19.1c0-1.8-1-2.8-3-2.8h-2.8v5.5h2.8
		C165.5,21.9,166.5,21,166.5,19.1z"/>
	<path class="st1" d="M196,10.7v5.6h-6.8v19.8h-7.1V16.3h-6.7v-5.6H196z"/>
	<path class="st1" d="M206,10.7v25.4h-7.1V10.7H206z"/>
	<path class="st1" d="M216,34.6c-2-1.1-3.6-2.7-4.7-4.6c-1.2-2-1.7-4.2-1.7-6.7c0-2.5,0.6-4.7,1.7-6.7c1.2-2,2.7-3.5,4.7-4.6
		c2-1.1,4.2-1.7,6.6-1.7c2.4,0,4.6,0.6,6.6,1.7c2,1.1,3.5,2.6,4.7,4.6c1.2,2,1.7,4.2,1.7,6.7c0,2.5-0.6,4.7-1.7,6.7
		c-1.2,2-2.7,3.5-4.7,4.6s-4.2,1.7-6.6,1.7S218,35.8,216,34.6z M226.8,28c1-1.2,1.6-2.7,1.6-4.7c0-2-0.5-3.6-1.6-4.8
		s-2.5-1.7-4.3-1.7c-1.8,0-3.3,0.6-4.3,1.7c-1,1.2-1.5,2.8-1.5,4.8c0,2,0.5,3.6,1.5,4.7c1,1.2,2.5,1.7,4.3,1.7
		C224.3,29.8,225.7,29.2,226.8,28z"/>
	<path class="st1" d="M262.5,36.1h-7.1l-9.4-14.2v14.2H239V10.7h7.1l9.4,14.4V10.7h7.1V36.1z"/>
	<path class="st1" d="M269.2,34.2c-1.9-1.4-2.9-3.4-3.1-6h7.5c0.1,0.9,0.3,1.5,0.8,1.9c0.5,0.4,1,0.6,1.8,0.6c0.6,0,1.2-0.2,1.6-0.5
		c0.4-0.3,0.6-0.8,0.6-1.3c0-0.7-0.3-1.3-1-1.7c-0.7-0.4-1.8-0.9-3.4-1.4c-1.7-0.6-3-1.1-4-1.6c-1-0.5-1.9-1.3-2.7-2.3
		c-0.8-1-1.1-2.3-1.1-3.9c0-1.6,0.4-3,1.2-4.2c0.8-1.2,1.9-2,3.4-2.6c1.4-0.6,3.1-0.9,4.9-0.9c3,0,5.3,0.7,7.1,2.1
		c1.8,1.4,2.7,3.3,2.8,5.8h-7.7c0-0.8-0.3-1.3-0.7-1.7c-0.4-0.4-1-0.6-1.7-0.6c-0.5,0-1,0.2-1.3,0.5c-0.3,0.3-0.5,0.8-0.5,1.3
		c0,0.5,0.2,0.9,0.6,1.2c0.4,0.3,0.8,0.6,1.4,0.9c0.6,0.3,1.4,0.6,2.4,1c1.6,0.6,2.9,1.1,4,1.6s1.9,1.3,2.7,2.3
		c0.8,1,1.1,2.2,1.1,3.7c0,1.5-0.4,2.9-1.1,4.1c-0.8,1.2-1.8,2.1-3.3,2.8c-1.4,0.7-3.1,1-5.1,1C273.5,36.3,271.1,35.6,269.2,34.2z"
		/>
</g>
<g class="st2">
	<path class="st1" d="M72.1,50.5c-0.5-0.9-1.1-1.7-2-2.2c-0.9-0.5-1.8-0.8-3-0.8s-2.2,0.3-3.1,0.8s-1.6,1.3-2.1,2.2
		c-0.5,1-0.8,2.1-0.8,3.4c0,1.3,0.3,2.4,0.8,3.4s1.2,1.7,2.1,2.2c0.9,0.5,1.9,0.8,3.1,0.8c1.6,0,2.9-0.5,3.9-1.4
		c1-0.9,1.6-2.2,1.8-3.8h-6.5v-1.7h8.7v1.6c-0.1,1.3-0.5,2.6-1.3,3.7s-1.7,2-2.8,2.6s-2.5,1-3.9,1c-1.5,0-2.9-0.4-4.1-1.1
		s-2.2-1.7-2.9-2.9c-0.7-1.3-1.1-2.7-1.1-4.3c0-1.6,0.4-3,1.1-4.3c0.7-1.3,1.7-2.3,2.9-3s2.6-1.1,4.1-1.1c1.7,0,3.3,0.4,4.6,1.3
		c1.3,0.9,2.3,2.1,2.9,3.6H72.1z"/>
	<path class="st1" d="M78.2,46.8c-0.3-0.3-0.4-0.6-0.4-1c0-0.4,0.1-0.7,0.4-1c0.3-0.3,0.6-0.4,1-0.4c0.4,0,0.7,0.1,1,0.4
		c0.3,0.3,0.4,0.6,0.4,1c0,0.4-0.1,0.7-0.4,1c-0.3,0.3-0.6,0.4-1,0.4C78.8,47.2,78.5,47.1,78.2,46.8z M80.3,49.3v12.8h-2.1V49.3
		H80.3z"/>
	<path class="st1" d="M88.9,60.1l4-10.8h2.3l-5,12.8h-2.5l-5-12.8h2.3L88.9,60.1z"/>
	<path class="st1" d="M109,56.5H98.8c0.1,1.3,0.5,2.2,1.3,2.9c0.8,0.7,1.7,1.1,2.9,1.1c0.9,0,1.7-0.2,2.3-0.6c0.6-0.4,1-1,1.3-1.7
		h2.3c-0.3,1.2-1,2.2-2.1,3c-1,0.8-2.3,1.2-3.8,1.2c-1.2,0-2.3-0.3-3.3-0.8c-1-0.5-1.7-1.3-2.2-2.3c-0.5-1-0.8-2.2-0.8-3.5
		s0.3-2.5,0.8-3.5c0.5-1,1.3-1.8,2.2-2.3c1-0.5,2.1-0.8,3.3-0.8c1.2,0,2.3,0.3,3.2,0.8c0.9,0.5,1.7,1.3,2.2,2.2
		c0.5,0.9,0.8,2,0.8,3.1C109.1,55.6,109,56,109,56.5z M106.3,52.7c-0.4-0.6-0.8-1-1.5-1.3c-0.6-0.3-1.3-0.5-2-0.5
		c-1.1,0-2,0.3-2.7,1c-0.8,0.7-1.2,1.6-1.3,2.8h8.1C106.9,53.9,106.7,53.2,106.3,52.7z"/>
	<path class="st1" d="M120.6,45.8v10.3c0,1.4,0.4,2.5,1.1,3.2c0.7,0.7,1.7,1,2.9,1c1.2,0,2.2-0.3,2.9-1c0.7-0.7,1.1-1.8,1.1-3.2
		V45.8h2.1v10.3c0,1.4-0.3,2.5-0.8,3.4c-0.5,0.9-1.3,1.6-2.2,2.1c-0.9,0.5-2,0.7-3.1,0.7c-1.1,0-2.2-0.2-3.1-0.7
		c-0.9-0.5-1.7-1.1-2.2-2.1c-0.5-0.9-0.8-2.1-0.8-3.4V45.8H120.6z"/>
	<path class="st1" d="M136.4,61.8c-0.8-0.3-1.4-0.8-1.8-1.4c-0.5-0.6-0.7-1.3-0.7-2.1h2.2c0.1,0.6,0.4,1.2,0.9,1.6
		c0.5,0.4,1.2,0.6,2.1,0.6c0.8,0,1.4-0.2,1.9-0.5s0.7-0.8,0.7-1.4c0-0.6-0.2-1-0.7-1.2c-0.5-0.3-1.3-0.5-2.3-0.8
		c-0.9-0.2-1.7-0.5-2.3-0.8c-0.6-0.3-1.1-0.6-1.5-1.1s-0.6-1.2-0.6-2c0-0.7,0.2-1.3,0.6-1.8c0.4-0.5,0.9-1,1.7-1.3
		c0.7-0.3,1.5-0.5,2.4-0.5c1.4,0,2.6,0.4,3.4,1.1c0.9,0.7,1.3,1.7,1.4,2.9h-2.1c0-0.7-0.3-1.2-0.8-1.6s-1.1-0.6-2-0.6
		c-0.8,0-1.4,0.2-1.8,0.5c-0.5,0.3-0.7,0.8-0.7,1.3c0,0.4,0.1,0.8,0.4,1c0.3,0.3,0.6,0.5,1,0.7c0.4,0.2,1,0.3,1.7,0.5
		c0.9,0.2,1.7,0.5,2.2,0.7c0.6,0.2,1.1,0.6,1.5,1.1c0.4,0.5,0.6,1.1,0.6,1.9c0,0.7-0.2,1.3-0.6,1.9c-0.4,0.6-0.9,1-1.6,1.3
		c-0.7,0.3-1.5,0.5-2.4,0.5C138.1,62.3,137.2,62.1,136.4,61.8z"/>
	<path class="st1" d="M163,58.4h-7.1l-1.3,3.6h-2.2l5.9-16.1h2.4l5.8,16.1h-2.2L163,58.4z M162.4,56.7l-2.9-8.2l-2.9,8.2H162.4z"/>
</g>
<g class="st2">
	<path class="st0" d="M188.3,45.8v16.2h-2.1v-7.4h-8.3v7.4h-2.1V45.8h2.1v7.1h8.3v-7.1H188.3z"/>
	<path class="st0" d="M192.2,46.8c-0.3-0.3-0.4-0.6-0.4-1c0-0.4,0.1-0.7,0.4-1c0.3-0.3,0.6-0.4,1-0.4c0.4,0,0.7,0.1,1,0.4
		c0.3,0.3,0.4,0.6,0.4,1c0,0.4-0.1,0.7-0.4,1c-0.3,0.3-0.6,0.4-1,0.4C192.8,47.2,192.5,47.1,192.2,46.8z M194.2,49.3v12.8h-2.1V49.3
		H194.2z"/>
	<path class="st0" d="M206.2,49.8c0.8,0.5,1.4,1.1,1.9,1.8v-2.3h2.1v13c0,1.2-0.2,2.2-0.7,3.1c-0.5,0.9-1.2,1.6-2.1,2.1
		s-2,0.8-3.2,0.8c-1.7,0-3.1-0.4-4.2-1.2s-1.8-1.9-2-3.2h2.1c0.2,0.8,0.7,1.4,1.4,1.9c0.7,0.5,1.6,0.7,2.6,0.7
		c1.2,0,2.1-0.4,2.9-1.1c0.7-0.7,1.1-1.8,1.1-3.1v-2.7c-0.4,0.7-1,1.4-1.9,1.9s-1.8,0.7-2.9,0.7c-1.1,0-2.2-0.3-3.1-0.8
		c-0.9-0.6-1.7-1.3-2.2-2.4s-0.8-2.2-0.8-3.4c0-1.3,0.3-2.5,0.8-3.4s1.3-1.8,2.2-2.3c0.9-0.5,2-0.8,3.1-0.8
		C204.4,49.1,205.4,49.3,206.2,49.8z M207.5,53.1c-0.4-0.7-0.9-1.3-1.6-1.6s-1.4-0.6-2.2-0.6s-1.5,0.2-2.2,0.6s-1.2,0.9-1.6,1.6
		c-0.4,0.7-0.6,1.6-0.6,2.5c0,1,0.2,1.8,0.6,2.6c0.4,0.7,0.9,1.3,1.6,1.7c0.7,0.4,1.4,0.6,2.2,0.6s1.5-0.2,2.2-0.6
		c0.7-0.4,1.2-0.9,1.6-1.7c0.4-0.7,0.6-1.6,0.6-2.5S207.9,53.8,207.5,53.1z"/>
	<path class="st0" d="M223,49.7c0.8,0.4,1.4,1,1.8,1.9c0.4,0.8,0.7,1.8,0.7,3v7.5h-2.1v-7.2c0-1.3-0.3-2.2-1-2.9
		c-0.6-0.7-1.5-1-2.6-1c-1.1,0-2,0.3-2.7,1c-0.7,0.7-1,1.7-1,3.1v7.1h-2.1V44.8h2.1v6.3c0.4-0.7,1-1.2,1.7-1.5
		c0.7-0.4,1.6-0.5,2.5-0.5C221.4,49.1,222.2,49.3,223,49.7z"/>
	<path class="st0" d="M244.8,45.8v1.7h-7.1V53h5.7v1.7h-5.7v7.3h-2.1V45.8H244.8z"/>
	<path class="st0" d="M247.7,46.8c-0.3-0.3-0.4-0.6-0.4-1c0-0.4,0.1-0.7,0.4-1c0.3-0.3,0.6-0.4,1-0.4c0.4,0,0.7,0.1,1,0.4
		c0.3,0.3,0.4,0.6,0.4,1c0,0.4-0.1,0.7-0.4,1c-0.3,0.3-0.6,0.4-1,0.4C248.3,47.2,248,47.1,247.7,46.8z M249.8,49.3v12.8h-2.1V49.3
		H249.8z"/>
	<path class="st0" d="M258.4,60.1l4-10.8h2.3l-5,12.8h-2.5l-5-12.8h2.3L258.4,60.1z"/>
	<path class="st0" d="M278.5,56.5h-10.2c0.1,1.3,0.5,2.2,1.3,2.9s1.7,1.1,2.9,1.1c0.9,0,1.7-0.2,2.3-0.6c0.6-0.4,1-1,1.3-1.7h2.3
		c-0.3,1.2-1,2.2-2.1,3c-1,0.8-2.3,1.2-3.8,1.2c-1.2,0-2.3-0.3-3.3-0.8c-1-0.5-1.7-1.3-2.2-2.3s-0.8-2.2-0.8-3.5s0.3-2.5,0.8-3.5
		s1.3-1.8,2.2-2.3c1-0.5,2.1-0.8,3.3-0.8c1.2,0,2.3,0.3,3.2,0.8c0.9,0.5,1.7,1.3,2.2,2.2c0.5,0.9,0.8,2,0.8,3.1
		C278.6,55.6,278.5,56,278.5,56.5z M275.8,52.7c-0.4-0.6-0.8-1-1.5-1.3s-1.3-0.5-2-0.5c-1.1,0-2,0.3-2.7,1c-0.8,0.7-1.2,1.6-1.3,2.8
		h8.1C276.4,53.9,276.2,53.2,275.8,52.7z"/>
	<path class="st0" d="M282.3,61.8c-0.3-0.3-0.4-0.6-0.4-1s0.1-0.7,0.4-1s0.6-0.4,1-0.4c0.4,0,0.7,0.1,1,0.4c0.3,0.3,0.4,0.6,0.4,1
		s-0.1,0.7-0.4,1c-0.3,0.3-0.6,0.4-1,0.4C282.9,62.2,282.5,62.1,282.3,61.8z M284.3,45.8l-0.3,11.7h-1.8L282,45.8H284.3z"/>
</g>
</svg>
